<svg xmlns="http://www.w3.org/2000/svg" width="64" height="64" fill="none" viewBox="0 0 64 64" role="img" aria-label="AI Deep Core Research logo">
  <path fill="url(#a)" d="M32 4c12.15 0 22 9.85 22 22 0 14.5-11.6 22.7-20.2 31.7-1.05 1.1-2.55 1.1-3.6 0C21.6 48.7 10 40.5 10 26 10 13.85 19.85 4 32 4Z"/>
  <path fill="rgba(232,236,255,.85)" d="M32 16c5.52 0 10 4.48 10 10s-4.48 10-10 10-10-4.48-10-10 4.48-10 10-10Zm0 6.2a3.8 3.8 0 1 0 0 7.6 3.8 3.8 0 0 0 0-7.6Z"/>
  <defs>
    <linearGradient id="a" x1="12" x2="56" y1="10" y2="54" gradientUnits="userSpaceOnUse">
      <stop stop-color="#4aa3ff"/>
      <stop offset="1" stop-color="#16d6c6"/>
    </linearGradient>
  </defs>
</svg>

